<svg xmlns="http://www.w3.org/2000/svg" xmlns:xlink="http://www.w3.org/1999/xlink" width="258" height="75.544" viewBox="0 0 258 75.544">
  <defs>
    <filter id="Path_42" x="0" y="0" width="258" height="75.544" filterUnits="userSpaceOnUse">
      <feOffset dy="3" input="SourceAlpha"/>
      <feGaussianBlur stdDeviation="3" result="blur"/>
      <feFlood flood-opacity="0.161"/>
      <feComposite operator="in" in2="blur"/>
      <feComposite in="SourceGraphic"/>
    </filter>
  </defs>
  <g transform="matrix(1, 0, 0, 1, 0, 0)" filter="url(#Path_42)">
    <path id="Path_42-2" data-name="Path 42" d="M53.422-148.633v9.219H30.374v14.282H48.057v9.106H30.374v15.416h25.5v9.484H18.359v-57.506Zm7.088,0h11.9l-.076,31.815a30.661,30.661,0,0,0,1.266,9.97,8.414,8.414,0,0,0,3.722,4.836,13.5,13.5,0,0,0,6.423,1.326,12.073,12.073,0,0,0,6.234-1.438,9.022,9.022,0,0,0,3.684-4.966,29.8,29.8,0,0,0,1.266-9.728v-31.815h11.826v33q0,12.01-5.894,18.277T83.407-91.089q-12.317,0-17.664-6.491t-5.309-18.539Zm67.126,0v48.363h20.705v9.144h-32.72v-57.506Zm39.015,0v57.506H154.561v-57.506Zm4.859,9.219v-9.219h44.962v9.219h-16.4v48.287H187.984v-48.287Zm84.393-9.219v9.219H232.856v14.282h17.683v9.106H232.856v15.416h25.5v9.484H220.84v-57.506Z" transform="translate(-9.36 154.63)" fill="#415a77"/>
  </g>
</svg>
